<svg viewBox="0 0 21.231 20" xmlns="http://www.w3.org/2000/svg" xmlns:xlink="http://www.w3.org/1999/xlink" width="21.230957" height="20.000000" fill="none">
	<rect id="shopping-cart 1" width="21.230722" height="20.000000" x="0.000000" y="0.000000" fill="rgb(255,255,255)" fill-opacity="0" />
	<g id="Group">
		<path id="Vector" d="M15.9229 17.4997C15.9229 16.5792 16.7149 15.833 17.6921 15.833C18.6692 15.833 19.4613 16.5792 19.4613 17.4997C19.4613 18.4202 18.6692 19.1663 17.6921 19.1663C16.7149 19.1663 15.9229 18.4202 15.9229 17.4997Z" fill="rgb(255,255,255)" fill-rule="evenodd" />
		<path id="Vector" d="M6.19238 17.4997C6.19238 16.5792 6.98449 15.833 7.96161 15.833C8.93876 15.833 9.73084 16.5792 9.73084 17.4997C9.73084 18.4202 8.93876 19.1663 7.96161 19.1663C6.98449 19.1663 6.19238 18.4202 6.19238 17.4997Z" fill="rgb(255,255,255)" fill-rule="evenodd" />
		<path id="Vector" d="M1.57139e-15 0.833333C1.57139e-15 0.373096 0.396055 0 0.884614 0L4.42307 0C4.8447 0 5.20773 0.280321 5.29048 0.669786L6.03344 4.16667L20.3461 4.16667C20.6097 4.16667 20.8596 4.27744 21.0277 4.4688C21.1958 4.66015 21.2644 4.91215 21.2151 5.15611L19.7984 12.154C19.6771 12.7295 19.3447 13.2465 18.8595 13.6144C18.3768 13.9805 17.7733 14.1758 17.1539 14.1667L8.5707 14.1667C7.95124 14.1758 7.34778 13.9805 6.86503 13.6144C6.38005 13.2466 6.04778 12.7299 5.92632 12.1547L4.44854 5.19933C4.44254 5.17632 4.43756 5.15294 4.43364 5.12923L3.69797 1.66667L0.884614 1.66667C0.396055 1.66667 0 1.29357 0 0.833333L1.57139e-15 0.833333ZM6.38756 5.83333L7.6615 11.8293C7.70194 12.0212 7.81272 12.1935 7.97445 12.3161C8.13617 12.4387 8.33853 12.5039 8.54611 12.5002L8.56306 12.5L17.1615 12.5L17.1785 12.5002C17.386 12.5039 17.5884 12.4387 17.7501 12.3161C17.9111 12.194 18.0216 12.0227 18.0625 11.832L19.2769 5.83333L6.38756 5.83333Z" fill="rgb(255,255,255)" fill-rule="evenodd" />
	</g>
</svg>
