<svg viewBox="0 0 185 30.0186" xmlns="http://www.w3.org/2000/svg" xmlns:xlink="http://www.w3.org/1999/xlink" width="185.000000" height="30.018555" fill="none" customFrame="#000000">
	<g id="categories">
		<path id="Browse Categories" d="M33.0195 16.2188L34.9492 16.2188C35.6602 16.2188 36.2839 16.1185 36.8203 15.918C37.3568 15.7174 37.776 15.4219 38.0781 15.0312C38.3828 14.6406 38.5352 14.1706 38.5352 13.6211C38.5352 12.9805 38.3828 12.4531 38.0781 12.0391C37.776 11.6224 37.3568 11.3125 36.8203 11.1094C36.2839 10.9036 35.6602 10.8008 34.9492 10.8008L31.5664 10.8008L31.5664 22L35.1484 22C35.9401 22 36.6367 21.8854 37.2383 21.6562C37.8424 21.4245 38.3164 21.0703 38.6602 20.5938C39.0039 20.1172 39.1758 19.5104 39.1758 18.7734C39.1758 18.2396 39.0677 17.7799 38.8516 17.3945C38.638 17.0091 38.3438 16.6927 37.9688 16.4453C37.5938 16.1979 37.1654 16.0156 36.6836 15.8984C36.2044 15.7786 35.6927 15.7188 35.1484 15.7188L33.0195 15.7188L33.0195 16.7656L35.0273 16.7656C35.3503 16.7656 35.6458 16.8021 35.9141 16.875C36.1823 16.9479 36.4154 17.0599 36.6133 17.2109C36.8138 17.362 36.9674 17.5521 37.0742 17.7812C37.181 18.0078 37.2344 18.2708 37.2344 18.5703C37.2344 18.9896 37.1393 19.3372 36.9492 19.6133C36.7591 19.8867 36.4974 20.0938 36.1641 20.2344C35.8333 20.3724 35.4544 20.4414 35.0273 20.4414L33.4688 20.4414L33.4688 12.3594L34.8281 12.3594C35.3542 12.3594 35.7799 12.487 36.1055 12.7422C36.4336 12.9948 36.5977 13.3568 36.5977 13.8281C36.5977 14.1406 36.5221 14.4062 36.3711 14.625C36.2227 14.8438 36.0143 15.0104 35.7461 15.125C35.4805 15.2396 35.1745 15.2969 34.8281 15.2969L33.0195 15.2969L33.0195 16.2188ZM42.7644 14.6406L41.0457 14.6406L41.0457 22L42.7644 22L42.7644 14.6406ZM44.948 16.4883L45.7918 15.0234C45.6251 14.8255 45.4233 14.6849 45.1863 14.6016C44.9519 14.5156 44.7019 14.4727 44.4363 14.4727C44.0691 14.4727 43.7111 14.6068 43.3621 14.875C43.0131 15.1432 42.7293 15.5052 42.5105 15.9609C42.2944 16.4141 42.1863 16.9336 42.1863 17.5195L42.7644 17.8594C42.7644 17.5078 42.8035 17.2005 42.8816 16.9375C42.9624 16.6719 43.0939 16.4661 43.2762 16.3203C43.4585 16.1745 43.6915 16.1016 43.9754 16.1016C44.1889 16.1016 44.366 16.1341 44.5066 16.1992C44.6499 16.2643 44.797 16.3607 44.948 16.4883ZM46.1792 18.3203C46.1792 19.0703 46.3537 19.7357 46.7026 20.3164C47.0516 20.8945 47.5255 21.3464 48.1245 21.6719C48.7235 21.9974 49.3979 22.1602 50.1479 22.1602C50.9058 22.1602 51.5828 21.9974 52.1792 21.6719C52.7755 21.3464 53.2469 20.8945 53.5933 20.3164C53.9422 19.7357 54.1167 19.0703 54.1167 18.3203C54.1167 17.5599 53.9422 16.8919 53.5933 16.3164C53.2469 15.7409 52.7755 15.2904 52.1792 14.9648C51.5828 14.6393 50.9058 14.4766 50.1479 14.4766C49.3979 14.4766 48.7235 14.6393 48.1245 14.9648C47.5255 15.2904 47.0516 15.7409 46.7026 16.3164C46.3537 16.8919 46.1792 17.5599 46.1792 18.3203ZM47.9565 18.3203C47.9565 17.862 48.0529 17.457 48.2456 17.1055C48.4383 16.7539 48.7 16.4818 49.0308 16.2891C49.3615 16.0938 49.7339 15.9961 50.1479 15.9961C50.562 15.9961 50.9344 16.0938 51.2651 16.2891C51.5959 16.4818 51.8576 16.7539 52.0503 17.1055C52.243 17.457 52.3393 17.862 52.3393 18.3203C52.3393 18.7786 52.243 19.181 52.0503 19.5273C51.8576 19.8737 51.5959 20.1458 51.2651 20.3438C50.9344 20.5417 50.562 20.6406 50.1479 20.6406C49.7339 20.6406 49.3615 20.5417 49.0308 20.3438C48.7 20.1458 48.4383 19.8737 48.2456 19.5273C48.0529 19.181 47.9565 18.7786 47.9565 18.3203ZM54.4241 14.6406L57.8655 22.5195L60.0765 17.5547L62.3851 22.5195L65.8226 14.6406L63.9437 14.6406L62.2171 19.0391L60.0648 14.0781L58.0218 19.0156L56.303 14.6406L54.4241 14.6406ZM67.2735 19.5742L66.2657 20.5938C66.4819 20.8672 66.7475 21.1302 67.0626 21.3828C67.3777 21.6328 67.7449 21.8346 68.1642 21.9883C68.5834 22.1419 69.0457 22.2188 69.5509 22.2188C70.3582 22.2188 70.9975 22.0104 71.4688 21.5938C71.9428 21.1771 72.1798 20.6198 72.1798 19.9219C72.1798 19.4766 72.0769 19.1159 71.8712 18.8398C71.6681 18.5612 71.3959 18.3268 71.0548 18.1367C70.7136 17.944 70.3399 17.7682 69.9337 17.6094C69.6342 17.4896 69.3634 17.3763 69.1212 17.2695C68.8816 17.1628 68.6902 17.043 68.547 16.9102C68.4037 16.7773 68.3321 16.6224 68.3321 16.4453C68.3321 16.2422 68.4116 16.0885 68.5704 15.9844C68.7319 15.8802 68.9363 15.8281 69.1837 15.8281C69.5457 15.8281 69.8972 15.9193 70.2384 16.1016C70.5821 16.2839 70.8751 16.5182 71.1173 16.8047L72.0743 15.7812C71.8738 15.5286 71.6277 15.3073 71.336 15.1172C71.0444 14.9245 70.7201 14.7708 70.3634 14.6562C70.0092 14.5391 69.6277 14.4805 69.2188 14.4805C68.7709 14.4805 68.353 14.5547 67.9649 14.7031C67.5795 14.849 67.2696 15.0703 67.0352 15.3672C66.8035 15.6641 66.6876 16.0339 66.6876 16.4766C66.6876 16.9193 66.7931 17.2852 67.004 17.5742C67.2175 17.8633 67.4858 18.0964 67.8087 18.2734C68.1316 18.4479 68.4584 18.5977 68.7892 18.7227C69.1199 18.8372 69.4076 18.9518 69.6524 19.0664C69.8972 19.181 70.0886 19.3138 70.2267 19.4648C70.3673 19.6159 70.4376 19.7995 70.4376 20.0156C70.4376 20.2578 70.3504 20.4505 70.1759 20.5938C70.004 20.7344 69.7605 20.8047 69.4454 20.8047C69.198 20.8047 68.9519 20.7578 68.7071 20.6641C68.4623 20.5677 68.2215 20.4271 67.9845 20.2422C67.7501 20.0573 67.5131 19.8346 67.2735 19.5742ZM76.9247 22.1602C77.7711 22.1602 78.4989 21.9935 79.1083 21.6602C79.7203 21.3268 80.2203 20.8294 80.6083 20.168L79.1161 19.5625C78.8844 19.9583 78.5927 20.2539 78.2411 20.4492C77.8896 20.6419 77.4768 20.7383 77.0028 20.7383C76.5549 20.7383 76.1747 20.6419 75.8622 20.4492C75.5497 20.2539 75.3127 19.9714 75.1513 19.6016C74.9898 19.2318 74.9104 18.7852 74.913 18.2617C74.9208 17.7253 75.0054 17.276 75.1669 16.9141C75.3284 16.5495 75.5614 16.2734 75.8661 16.0859C76.1708 15.8958 76.5432 15.8008 76.9833 15.8008C77.3505 15.8008 77.6682 15.8815 77.9364 16.043C78.2073 16.2018 78.4195 16.4245 78.5732 16.7109C78.7268 16.9948 78.8036 17.332 78.8036 17.7227C78.8036 17.7982 78.7867 17.8919 78.7528 18.0039C78.719 18.1133 78.6812 18.2005 78.6396 18.2656L79.1747 17.5273L74.1903 17.5273L74.1903 18.7188L80.6552 18.7188C80.6604 18.6745 80.6643 18.6055 80.6669 18.5117C80.6721 18.418 80.6747 18.3255 80.6747 18.2344C80.6747 17.4505 80.5302 16.7786 80.2411 16.2188C79.9521 15.6562 79.5341 15.2266 78.9872 14.9297C78.4403 14.6302 77.7789 14.4805 77.0028 14.4805C76.2242 14.4805 75.5458 14.6393 74.9677 14.957C74.3922 15.2721 73.9456 15.7174 73.6278 16.293C73.3127 16.8659 73.1552 17.5417 73.1552 18.3203C73.1552 19.0885 73.3114 19.7604 73.6239 20.3359C73.9364 20.9089 74.3765 21.3568 74.9443 21.6797C75.512 22 76.1721 22.1602 76.9247 22.1602ZM88.6886 16.3984C88.6886 15.599 88.867 14.9049 89.2237 14.3164C89.5805 13.7279 90.0492 13.2695 90.63 12.9414C91.2107 12.6133 91.8422 12.4492 92.5245 12.4492C93.0584 12.4492 93.5388 12.5182 93.9659 12.6562C94.393 12.7917 94.7797 12.9805 95.1261 13.2227C95.4724 13.4622 95.7706 13.7344 96.0206 14.0391L96.0206 11.793C95.5597 11.4023 95.0558 11.1068 94.5089 10.9062C93.9646 10.7031 93.2823 10.6016 92.462 10.6016C91.6339 10.6016 90.8656 10.7422 90.1573 11.0234C89.449 11.3047 88.8318 11.7044 88.3058 12.2227C87.7823 12.7409 87.3735 13.3555 87.0792 14.0664C86.7875 14.7747 86.6417 15.5521 86.6417 16.3984C86.6417 17.2474 86.7875 18.0273 87.0792 18.7383C87.3735 19.4466 87.7823 20.0599 88.3058 20.5781C88.8318 21.0964 89.449 21.4961 90.1573 21.7773C90.8656 22.0586 91.6339 22.1992 92.462 22.1992C93.2823 22.1992 93.9646 22.0977 94.5089 21.8945C95.0558 21.6914 95.5597 21.3958 96.0206 21.0078L96.0206 18.7617C95.7706 19.0638 95.4724 19.3359 95.1261 19.5781C94.7797 19.8177 94.393 20.0065 93.9659 20.1445C93.5388 20.2826 93.0584 20.3516 92.5245 20.3516C91.8422 20.3516 91.2107 20.1875 90.63 19.8594C90.0492 19.5312 89.5805 19.0716 89.2237 18.4805C88.867 17.8867 88.6886 17.1927 88.6886 16.3984ZM99.2914 19.7148C99.2914 19.4831 99.3461 19.2852 99.4555 19.1211C99.5649 18.957 99.7328 18.8307 99.9594 18.7422C100.186 18.651 100.48 18.6055 100.842 18.6055C101.259 18.6055 101.653 18.6602 102.026 18.7695C102.398 18.8763 102.747 19.0456 103.073 19.2773L103.073 18.3945C102.976 18.2799 102.812 18.151 102.581 18.0078C102.351 17.8646 102.057 17.7396 101.698 17.6328C101.341 17.5234 100.915 17.4688 100.42 17.4688C99.5063 17.4688 98.7967 17.681 98.2914 18.1055C97.7888 18.5273 97.5375 19.0951 97.5375 19.8086C97.5375 20.3086 97.656 20.7344 97.893 21.0859C98.13 21.4375 98.4451 21.7044 98.8383 21.8867C99.2315 22.069 99.656 22.1602 100.112 22.1602C100.544 22.1602 100.965 22.082 101.373 21.9258C101.782 21.7695 102.122 21.5339 102.393 21.2188C102.664 20.901 102.799 20.5078 102.799 20.0391L102.545 19.0781C102.545 19.4479 102.459 19.7682 102.288 20.0391C102.118 20.3073 101.892 20.513 101.608 20.6562C101.327 20.7969 101.011 20.8672 100.663 20.8672C100.4 20.8672 100.164 20.8242 99.9555 20.7383C99.7472 20.6497 99.5844 20.5182 99.4672 20.3438C99.35 20.1667 99.2914 19.957 99.2914 19.7148ZM98.7446 16.5586C98.8565 16.4831 99.0206 16.3906 99.2368 16.2812C99.4529 16.1693 99.712 16.0729 100.014 15.9922C100.316 15.9089 100.64 15.8672 100.987 15.8672C101.211 15.8672 101.419 15.8893 101.612 15.9336C101.804 15.9779 101.97 16.0482 102.108 16.1445C102.248 16.2383 102.357 16.362 102.432 16.5156C102.508 16.6667 102.545 16.8555 102.545 17.082L102.545 22L104.245 22L104.245 16.7617C104.245 16.2669 104.113 15.8503 103.85 15.5117C103.587 15.1706 103.222 14.9102 102.756 14.7305C102.293 14.5508 101.758 14.4609 101.151 14.4609C100.463 14.4609 99.8565 14.5586 99.3305 14.7539C98.8071 14.9466 98.3774 15.1445 98.0414 15.3477L98.7446 16.5586ZM105.238 14.6406L105.238 16.1602L109.422 16.1602L109.422 14.6406L105.238 14.6406ZM106.48 12.0781L106.48 22L108.18 22L108.18 12.0781L106.48 12.0781ZM113.805 22.1602C114.651 22.1602 115.379 21.9935 115.988 21.6602C116.6 21.3268 117.1 20.8294 117.488 20.168L115.996 19.5625C115.764 19.9583 115.473 20.2539 115.121 20.4492C114.77 20.6419 114.357 20.7383 113.883 20.7383C113.435 20.7383 113.055 20.6419 112.742 20.4492C112.43 20.2539 112.193 19.9714 112.031 19.6016C111.87 19.2318 111.79 18.7852 111.793 18.2617C111.801 17.7253 111.885 17.276 112.047 16.9141C112.208 16.5495 112.441 16.2734 112.746 16.0859C113.051 15.8958 113.423 15.8008 113.863 15.8008C114.231 15.8008 114.548 15.8815 114.816 16.043C115.087 16.2018 115.3 16.4245 115.453 16.7109C115.607 16.9948 115.684 17.332 115.684 17.7227C115.684 17.7982 115.667 17.8919 115.633 18.0039C115.599 18.1133 115.561 18.2005 115.52 18.2656L116.055 17.5273L111.07 17.5273L111.07 18.7188L117.535 18.7188C117.54 18.6745 117.544 18.6055 117.547 18.5117C117.552 18.418 117.555 18.3255 117.555 18.2344C117.555 17.4505 117.41 16.7786 117.121 16.2188C116.832 15.6562 116.414 15.2266 115.867 14.9297C115.32 14.6302 114.659 14.4805 113.883 14.4805C113.104 14.4805 112.426 14.6393 111.848 14.957C111.272 15.2721 110.826 15.7174 110.508 16.293C110.193 16.8659 110.035 17.5417 110.035 18.3203C110.035 19.0885 110.191 19.7604 110.504 20.3359C110.816 20.9089 111.257 21.3568 111.824 21.6797C112.392 22 113.052 22.1602 113.805 22.1602ZM118.808 22.5C118.831 23.138 118.995 23.7018 119.3 24.1914C119.607 24.6836 120.043 25.0638 120.608 25.332C121.174 25.6029 121.853 25.7383 122.647 25.7383C123.319 25.7383 123.944 25.5977 124.522 25.3164C125.101 25.0352 125.568 24.6055 125.925 24.0273C126.282 23.4518 126.46 22.7227 126.46 21.8398L126.46 14.6406L124.761 14.6406L124.761 21.8398C124.761 22.3919 124.655 22.8451 124.444 23.1992C124.236 23.5534 123.968 23.8151 123.64 23.9844C123.312 24.1536 122.968 24.2383 122.608 24.2383C122.194 24.2383 121.834 24.1628 121.526 24.0117C121.219 23.8607 120.978 23.6536 120.804 23.3906C120.632 23.1276 120.539 22.8307 120.526 22.5L118.808 22.5ZM118.659 18.2812C118.659 19.0833 118.825 19.7682 119.155 20.3359C119.489 20.9036 119.929 21.3359 120.476 21.6328C121.022 21.9297 121.614 22.0781 122.249 22.0781C122.866 22.0781 123.408 21.9271 123.874 21.625C124.34 21.3229 124.707 20.888 124.976 20.3203C125.244 19.75 125.378 19.0703 125.378 18.2812C125.378 17.4792 125.244 16.7969 124.976 16.2344C124.707 15.6693 124.34 15.2357 123.874 14.9336C123.408 14.6315 122.866 14.4805 122.249 14.4805C121.614 14.4805 121.022 14.6289 120.476 14.9258C119.929 15.2227 119.489 15.6523 119.155 16.2148C118.825 16.7773 118.659 17.4661 118.659 18.2812ZM120.456 18.2812C120.456 17.7865 120.556 17.3685 120.757 17.0273C120.96 16.6836 121.231 16.4232 121.569 16.2461C121.908 16.069 122.274 15.9805 122.667 15.9805C122.917 15.9805 123.164 16.0312 123.409 16.1328C123.657 16.2318 123.882 16.3789 124.085 16.5742C124.291 16.7669 124.455 17.0052 124.577 17.2891C124.7 17.5729 124.761 17.9036 124.761 18.2812C124.761 18.7786 124.657 19.1992 124.448 19.543C124.24 19.8841 123.974 20.1419 123.651 20.3164C123.328 20.4909 123 20.5781 122.667 20.5781C122.274 20.5781 121.908 20.4896 121.569 20.3125C121.231 20.1354 120.96 19.875 120.757 19.5312C120.556 19.1875 120.456 18.7708 120.456 18.2812ZM128.035 18.3203C128.035 19.0703 128.21 19.7357 128.559 20.3164C128.908 20.8945 129.382 21.3464 129.98 21.6719C130.579 21.9974 131.254 22.1602 132.004 22.1602C132.762 22.1602 133.439 21.9974 134.035 21.6719C134.632 21.3464 135.103 20.8945 135.449 20.3164C135.798 19.7357 135.973 19.0703 135.973 18.3203C135.973 17.5599 135.798 16.8919 135.449 16.3164C135.103 15.7409 134.632 15.2904 134.035 14.9648C133.439 14.6393 132.762 14.4766 132.004 14.4766C131.254 14.4766 130.579 14.6393 129.98 14.9648C129.382 15.2904 128.908 15.7409 128.559 16.3164C128.21 16.8919 128.035 17.5599 128.035 18.3203ZM129.813 18.3203C129.813 17.862 129.909 17.457 130.102 17.1055C130.294 16.7539 130.556 16.4818 130.887 16.2891C131.217 16.0938 131.59 15.9961 132.004 15.9961C132.418 15.9961 132.79 16.0938 133.121 16.2891C133.452 16.4818 133.714 16.7539 133.906 17.1055C134.099 17.457 134.195 17.862 134.195 18.3203C134.195 18.7786 134.099 19.181 133.906 19.5273C133.714 19.8737 133.452 20.1458 133.121 20.3438C132.79 20.5417 132.418 20.6406 132.004 20.6406C131.59 20.6406 131.217 20.5417 130.887 20.3438C130.556 20.1458 130.294 19.8737 130.102 19.5273C129.909 19.181 129.813 18.7786 129.813 18.3203ZM139.34 14.6406L137.622 14.6406L137.622 22L139.34 22L139.34 14.6406ZM141.524 16.4883L142.368 15.0234C142.201 14.8255 141.999 14.6849 141.762 14.6016C141.528 14.5156 141.278 14.4727 141.012 14.4727C140.645 14.4727 140.287 14.6068 139.938 14.875C139.589 15.1432 139.305 15.5052 139.087 15.9609C138.87 16.4141 138.762 16.9336 138.762 17.5195L139.34 17.8594C139.34 17.5078 139.38 17.2005 139.458 16.9375C139.538 16.6719 139.67 16.4661 139.852 16.3203C140.034 16.1745 140.268 16.1016 140.551 16.1016C140.765 16.1016 140.942 16.1341 141.083 16.1992C141.226 16.2643 141.373 16.3607 141.524 16.4883ZM143.495 11.7109C143.495 12.0052 143.603 12.2552 143.819 12.4609C144.036 12.6641 144.292 12.7656 144.589 12.7656C144.894 12.7656 145.151 12.6641 145.362 12.4609C145.573 12.2552 145.679 12.0052 145.679 11.7109C145.679 11.4115 145.573 11.1615 145.362 10.9609C145.151 10.7604 144.894 10.6602 144.589 10.6602C144.292 10.6602 144.036 10.7604 143.819 10.9609C143.603 11.1615 143.495 11.4115 143.495 11.7109ZM143.733 14.6406L143.733 22L145.441 22L145.441 14.6406L143.733 14.6406ZM151.037 22.1602C151.883 22.1602 152.611 21.9935 153.22 21.6602C153.832 21.3268 154.332 20.8294 154.72 20.168L153.228 19.5625C152.996 19.9583 152.705 20.2539 152.353 20.4492C152.002 20.6419 151.589 20.7383 151.115 20.7383C150.667 20.7383 150.287 20.6419 149.974 20.4492C149.662 20.2539 149.425 19.9714 149.263 19.6016C149.102 19.2318 149.022 18.7852 149.025 18.2617C149.033 17.7253 149.117 17.276 149.279 16.9141C149.44 16.5495 149.673 16.2734 149.978 16.0859C150.283 15.8958 150.655 15.8008 151.095 15.8008C151.463 15.8008 151.78 15.8815 152.048 16.043C152.319 16.2018 152.532 16.4245 152.685 16.7109C152.839 16.9948 152.916 17.332 152.916 17.7227C152.916 17.7982 152.899 17.8919 152.865 18.0039C152.831 18.1133 152.793 18.2005 152.752 18.2656L153.287 17.5273L148.302 17.5273L148.302 18.7188L154.767 18.7188C154.772 18.6745 154.776 18.6055 154.779 18.5117C154.784 18.418 154.787 18.3255 154.787 18.2344C154.787 17.4505 154.642 16.7786 154.353 16.2188C154.064 15.6562 153.646 15.2266 153.099 14.9297C152.552 14.6302 151.891 14.4805 151.115 14.4805C150.336 14.4805 149.658 14.6393 149.08 14.957C148.504 15.2721 148.058 15.7174 147.74 16.293C147.425 16.8659 147.267 17.5417 147.267 18.3203C147.267 19.0885 147.423 19.7604 147.736 20.3359C148.048 20.9089 148.489 21.3568 149.056 21.6797C149.624 22 150.284 22.1602 151.037 22.1602ZM156.794 19.5742L155.786 20.5938C156.002 20.8672 156.268 21.1302 156.583 21.3828C156.898 21.6328 157.265 21.8346 157.684 21.9883C158.103 22.1419 158.566 22.2188 159.071 22.2188C159.878 22.2188 160.518 22.0104 160.989 21.5938C161.463 21.1771 161.7 20.6198 161.7 19.9219C161.7 19.4766 161.597 19.1159 161.391 18.8398C161.188 18.5612 160.916 18.3268 160.575 18.1367C160.234 17.944 159.86 17.7682 159.454 17.6094C159.154 17.4896 158.883 17.3763 158.641 17.2695C158.402 17.1628 158.21 17.043 158.067 16.9102C157.924 16.7773 157.852 16.6224 157.852 16.4453C157.852 16.2422 157.932 16.0885 158.09 15.9844C158.252 15.8802 158.456 15.8281 158.704 15.8281C159.066 15.8281 159.417 15.9193 159.758 16.1016C160.102 16.2839 160.395 16.5182 160.637 16.8047L161.594 15.7812C161.394 15.5286 161.148 15.3073 160.856 15.1172C160.564 14.9245 160.24 14.7708 159.883 14.6562C159.529 14.5391 159.148 14.4805 158.739 14.4805C158.291 14.4805 157.873 14.5547 157.485 14.7031C157.1 14.849 156.79 15.0703 156.555 15.3672C156.323 15.6641 156.208 16.0339 156.208 16.4766C156.208 16.9193 156.313 17.2852 156.524 17.5742C156.738 17.8633 157.006 18.0964 157.329 18.2734C157.652 18.4479 157.978 18.5977 158.309 18.7227C158.64 18.8372 158.928 18.9518 159.172 19.0664C159.417 19.181 159.609 19.3138 159.747 19.4648C159.887 19.6159 159.958 19.7995 159.958 20.0156C159.958 20.2578 159.87 20.4505 159.696 20.5938C159.524 20.7344 159.281 20.8047 158.965 20.8047C158.718 20.8047 158.472 20.7578 158.227 20.6641C157.982 20.5677 157.741 20.4271 157.504 20.2422C157.27 20.0573 157.033 19.8346 156.794 19.5742Z" fill="rgb(255,255,255)" fill-rule="nonzero" />
		<g id="Group 44">
			<rect id="Rectangle 50" width="15.163966" height="1.999992" x="5.054688" y="8.000000" fill="rgb(255,255,255)" />
			<rect id="Rectangle 51" width="20.218578" height="2.000008" x="0.000000" y="16.000000" fill="rgb(255,255,255)" />
			<rect id="Rectangle 52" width="15.163936" height="2.000008" x="0.000000" y="24.000000" fill="rgb(255,255,255)" />
		</g>
		<rect id="Rectangle 61" width="1.010898" height="29.999992" x="183.989258" y="0.000000" opacity="0.100000001" fill="rgb(255,255,255)" />
	</g>
</svg>
