<svg viewBox="0 0 24.1313 22" xmlns="http://www.w3.org/2000/svg" xmlns:xlink="http://www.w3.org/1999/xlink" width="24.131348" height="22.000000" fill="none">
	<rect id="heart 1" width="24.131544" height="22.000000" x="0.000000" y="0.000000" fill="rgb(255,255,255)" fill-opacity="0" />
	<g id="Group">
		<path id="Vector" d="M16.0408 3.55371C18.8862 3.55371 21.1922 5.68841 21.1922 8.67701C21.1922 14.6542 14.1677 18.0698 11.8261 19.3506C9.48456 18.0698 2.45996 14.6542 2.45996 8.67701C2.45996 5.68841 4.8015 3.55371 7.61133 3.55371C9.35342 3.55371 10.8895 4.40759 11.8261 5.26147C12.7627 4.40759 14.2987 3.55371 16.0408 3.55371ZM12.7009 16.8777C13.526 16.403 14.2707 15.9308 14.9675 15.4253C17.7595 13.4016 19.319 11.19 19.319 8.67701C19.319 6.66184 17.8794 5.26147 16.0408 5.26147C15.033 5.26147 13.9428 5.74818 13.1504 6.46886L11.8261 7.67625L10.5017 6.46886C9.70934 5.74818 8.61912 5.26147 7.61133 5.26147C5.7943 5.26147 4.33319 6.6755 4.33319 8.67701C4.33319 11.1909 5.89358 13.4016 8.68375 15.4253C9.38153 15.9308 10.1261 16.403 10.9513 16.8769C11.2313 17.0383 11.5086 17.1928 11.8261 17.3653C12.1436 17.1928 12.4209 17.0383 12.7009 16.8777Z" fill="rgb(255,255,255)" fill-rule="nonzero" />
	</g>
</svg>
