<svg viewBox="0 0 21.3628 20" xmlns="http://www.w3.org/2000/svg" xmlns:xlink="http://www.w3.org/1999/xlink" width="21.362793" height="20.000000" fill="none">
	<rect id="profile 1" width="21.362886" height="20.000000" x="0.000000" y="0.000000" fill="rgb(255,255,255)" fill-opacity="0" />
	<path id="Vector" d="M10.6815 9.16634C11.5617 9.16634 12.4222 8.922 13.1542 8.46409C13.886 8.00629 14.4565 7.35555 14.7933 6.59419C15.1301 5.83283 15.2183 4.99506 15.0465 4.1868C14.8748 3.37855 14.451 2.63611 13.8285 2.0534C13.2061 1.47068 12.4131 1.07384 11.5498 0.913073C10.6864 0.752298 9.79155 0.834814 8.97833 1.15017C8.16508 1.46554 7.46999 1.9996 6.98095 2.6848C6.49191 3.37001 6.23089 4.17559 6.23089 4.99967C6.2323 6.10434 6.70166 7.16337 7.536 7.94449C8.37035 8.72559 9.50154 9.165 10.6815 9.16634ZM10.6815 2.49967C11.2096 2.49967 11.726 2.6463 12.1651 2.921C12.6042 3.19571 12.9465 3.58615 13.1485 4.04296C13.3507 4.49978 13.4036 5.00245 13.3006 5.4874C13.1975 5.97235 12.9432 6.41781 12.5697 6.76744C12.1963 7.11707 11.7204 7.35517 11.2025 7.45164C10.6844 7.5481 10.1475 7.49859 9.65954 7.30937C9.17167 7.12015 8.75459 6.79972 8.46116 6.3886C8.16775 5.97748 8.01113 5.49413 8.01113 4.99967C8.01113 4.33663 8.29247 3.70075 8.79326 3.23191C9.29406 2.76306 9.97331 2.49967 10.6815 2.49967ZM2.67041 18.333L2.67041 14.9997C2.67183 13.895 3.14118 12.836 3.97552 12.0548C4.80987 11.2738 5.94107 10.8343 7.12101 10.833L14.242 10.833C15.4219 10.8343 16.5531 11.2738 17.3875 12.0548C18.2218 12.836 18.6911 13.895 18.6926 14.9997L18.6926 18.333C18.6926 18.554 18.5987 18.766 18.4319 18.9223C18.265 19.0785 18.0385 19.1663 17.8024 19.1663C17.5664 19.1663 17.3399 19.0785 17.173 18.9223C17.0061 18.766 16.9123 18.554 16.9123 18.333L16.9123 14.9997C16.9123 14.3367 16.631 13.7008 16.1302 13.2319C15.6294 12.7631 14.9501 12.4997 14.242 12.4997L7.12101 12.4997C6.41279 12.4997 5.73357 12.7631 5.23278 13.2319C4.73199 13.7008 4.45065 14.3367 4.45065 14.9997L4.45065 18.333C4.45065 18.554 4.35687 18.766 4.18994 18.9223C4.02301 19.0785 3.79661 19.1663 3.56053 19.1663C3.32445 19.1663 3.09805 19.0785 2.93112 18.9223C2.76419 18.766 2.67041 18.554 2.67041 18.333Z" fill="rgb(255,255,255)" fill-rule="nonzero" />
</svg>
