<svg viewBox="0 0 19.9238 20" xmlns="http://www.w3.org/2000/svg" xmlns:xlink="http://www.w3.org/1999/xlink" width="19.923828" height="20.000000" fill="none">
	<rect id="search 1" width="19.924023" height="20.000000" x="0.000000" y="0.000000" fill="rgb(255,255,255)" fill-opacity="0" />
	<g id="layer1">
		<path id="circle2017" d="M9.08171 1.60938C4.96514 1.60938 1.61182 4.97548 1.61182 9.10776C1.61182 13.24 4.96514 16.6127 9.08171 16.6127C10.84 16.6127 12.4571 15.9941 13.7352 14.9671L16.8467 18.0889C17.0037 18.24 17.2134 18.3233 17.4309 18.3211C17.6484 18.3189 17.8564 18.2312 18.0103 18.0769C18.1643 17.9227 18.2519 17.714 18.2544 17.4957C18.2569 17.2774 18.1742 17.0667 18.0239 16.9089L14.9123 13.7856C15.9363 12.5006 16.5532 10.8748 16.5532 9.10776C16.5532 4.97548 13.1983 1.60938 9.08171 1.60938ZM9.08171 3.27607C12.301 3.27607 14.8913 5.87623 14.8913 9.10776C14.8913 12.3393 12.301 14.946 9.08171 14.946C5.86245 14.946 3.27215 12.3393 3.27215 9.10776C3.27215 5.87623 5.86245 3.27607 9.08171 3.27607Z" fill="rgb(68.3652,49.663,150.875)" fill-rule="nonzero" />
	</g>
</svg>
