<svg viewBox="0 0 33 35" xmlns="http://www.w3.org/2000/svg" xmlns:xlink="http://www.w3.org/1999/xlink" width="33.000000" height="35.000000" fill="none">
	<rect id="fast-delivery 1" width="33.000000" height="35.000000" x="0.000000" y="0.000000" fill="rgb(255,255,255)" fill-opacity="0" />
	<path id="Vector" d="M13.0739 22.7012L23.1376 22.7012C24.2771 19.143 29.0318 19.1772 30.1602 22.7012L31.0012 22.7012L31.0012 17.5724C31.0012 16.9334 30.5074 16.4097 29.9052 16.4097C27.4336 16.4097 24.9619 16.4097 22.4903 16.4097C21.9561 16.4097 21.523 15.9504 21.523 15.3841L21.523 9.22932L4.95251 9.22932L4.95251 10.4601L6.73076 10.4601C8.00396 10.4601 8.00396 12.5116 6.73076 12.5116L4.95251 12.5116L4.95251 14.4949L9.5949 14.4949C10.8684 14.4949 10.8684 16.5464 9.5949 16.5464L4.95251 16.5464L4.95251 22.7009L6.05148 22.7009C7.19074 19.1428 11.9457 19.1775 13.0739 22.7012ZM3.01816 12.5116L1.85775 12.5116C0.584296 12.5116 0.584296 10.4601 1.85775 10.4601L3.01816 10.4601L3.01816 8.20339C3.01816 7.63702 3.4512 7.17773 3.98546 7.17773C5.46562 7.17773 21.7327 7.18441 21.7327 7.17773C24.3804 7.17773 26.6866 8.56789 28.0436 10.9832L29.9399 14.3584C31.5948 14.3782 32.9355 15.814 32.9355 17.5721L32.9355 23.7268C32.9355 24.2932 32.5025 24.7525 31.9685 24.7525L30.2823 24.7525C29.9357 26.563 28.4273 27.8981 26.6491 27.8981C24.8708 27.8981 23.3624 26.563 23.0158 24.7525L13.196 24.7525C12.8493 26.563 11.3409 27.8981 9.56267 27.8981C7.78442 27.8981 6.27606 26.563 5.92938 24.7525L3.98546 24.7525C3.4512 24.7525 3.01816 24.2932 3.01816 23.7268L3.01816 20.6493L0.890448 20.6493C-0.382754 20.6493 -0.382754 18.598 0.890448 18.598L3.01816 18.598L3.01816 16.5464L0.890448 16.5464C-0.382754 16.5464 -0.382754 14.4949 0.890448 14.4949L3.01816 14.4949L3.01816 12.5116ZM27.9029 22.6363C28.5952 23.3706 28.5952 24.5616 27.9029 25.2959C26.789 26.4772 24.8758 25.6369 24.8758 23.9661C24.8758 22.2953 26.789 21.455 27.9029 22.6363ZM27.6952 14.3581L23.4574 14.3581L23.4574 9.50729C24.6913 9.9268 25.7004 10.8075 26.3887 12.0329L27.6952 14.3581ZM10.8165 22.6363C11.5089 23.3706 11.5089 24.5616 10.8165 25.2959C9.70266 26.4772 7.78945 25.6369 7.78945 23.9661C7.78971 22.2953 9.70266 21.455 10.8165 22.6363Z" fill="rgb(4,30,66)" fill-rule="evenodd" />
</svg>
